<svg width="40" height="40" viewBox="0 0 40 40" fill="none" xmlns="http://www.w3.org/2000/svg">
<path fill-rule="evenodd" clip-rule="evenodd" d="M16.2787 6.15077L15.0097 4.16418L15.0029 4.16855C14.9782 4.11997 14.9508 4.07215 14.9209 4.02526L14.8972 3.98805C14.4017 3.21232 13.3711 2.98518 12.5954 3.4807L9.00025 5.77721C8.22453 6.27273 7.99739 7.30327 8.49291 8.07898L8.51666 8.11619C8.54666 8.16308 8.5785 8.20797 8.61225 8.25081L8.60541 8.25517L9.87441 10.2418L16.2787 6.15077ZM10.7716 11.6463L15.5627 19.1467C16.0742 19.9473 16.4982 20.2882 17.0553 20.736C17.3101 20.9409 17.5928 21.1681 17.9244 21.472C18.0689 21.6043 18.2493 21.7445 18.4722 21.9176C19.7122 22.8807 22.2665 24.8646 27.2582 32.2138C27.2911 32.1844 27.3267 32.1573 27.3651 32.1328L28.7882 31.2237C28.8252 31.2002 28.8632 31.1798 28.9022 31.1627C24.3352 23.5468 23.6102 20.3933 23.2582 18.8623C23.1948 18.5865 23.1435 18.3632 23.084 18.1761C22.9477 17.7475 22.8603 17.3954 22.7817 17.0781C22.6095 16.3844 22.4785 15.8563 21.967 15.0557L17.1759 7.55533L10.7716 11.6463ZM29.7612 32.5738C30.1286 33.1688 30.5175 33.7884 30.9293 34.4338L31.4677 35.2764C31.7421 35.7061 31.6162 36.2768 31.1866 36.5513C30.757 36.8258 30.1862 36.7 29.9117 36.2703L29.4148 35.4925C28.9876 34.8236 28.575 34.1885 28.1766 33.5853C28.2057 33.5713 28.2343 33.5553 28.2622 33.5374L29.6854 32.6283C29.712 32.6113 29.7372 32.5931 29.7612 32.5738ZM15.9562 10.3514L20.0472 16.7557L17.9124 18.1193L13.8215 11.7151L15.9562 10.3514Z" fill="#030F0F"/>
</svg>
