<svg width="18" height="19" viewBox="0 0 18 19" fill="none" xmlns="http://www.w3.org/2000/svg">
<path d="M16.1479 16.1523L12.6273 12.6486C13.6477 11.4292 14.1566 9.86519 14.048 8.28187C13.9394 6.69855 13.2217 5.21786 12.0443 4.14782C10.8668 3.07778 9.32029 2.50077 7.72635 2.53683C6.13241 2.57288 4.6138 3.21923 3.48642 4.34141C2.35904 5.4636 1.7097 6.97521 1.67348 8.56181C1.63725 10.1484 2.21693 11.6878 3.29193 12.8598C4.36692 14.0318 5.85447 14.7462 7.44512 14.8543C9.03577 14.9624 10.6071 14.4559 11.8321 13.4402L15.3519 16.9445C15.4042 16.9966 15.4663 17.0378 15.5345 17.066C15.6028 17.0941 15.676 17.1086 15.7499 17.1086C15.8238 17.1086 15.897 17.0941 15.9653 17.066C16.0336 17.0378 16.0956 16.9966 16.1479 16.9445C16.2001 16.8925 16.2416 16.8308 16.2699 16.7628C16.2982 16.6948 16.3127 16.622 16.3127 16.5484C16.3127 16.4748 16.2982 16.402 16.2699 16.334C16.2416 16.266 16.2001 16.2043 16.1479 16.1523ZM2.81242 8.70969C2.81242 7.71303 3.10933 6.73876 3.6656 5.91008C4.22188 5.08139 5.01253 4.4355 5.93758 4.0541C6.86263 3.6727 7.88053 3.57291 8.86256 3.76734C9.84459 3.96178 10.7466 4.44172 11.4546 5.14646C12.1626 5.8512 12.6448 6.74909 12.8401 7.7266C13.0355 8.7041 12.9352 9.71731 12.5521 10.6381C12.1689 11.5589 11.52 12.3459 10.6875 12.8996C9.85497 13.4533 8.87618 13.7489 7.87492 13.7489C6.53271 13.7474 5.24591 13.216 4.29683 12.2713C3.34775 11.3266 2.81391 10.0457 2.81242 8.70969Z" fill="#030F0F"/>
</svg>
