<svg width="19" height="19" viewBox="0 0 19 19" fill="none" xmlns="http://www.w3.org/2000/svg">
<path d="M3.14234 11.455L9.07984 5.51746C9.13498 5.46225 9.20046 5.41846 9.27254 5.38858C9.34462 5.3587 9.42189 5.34332 9.49991 5.34332C9.57794 5.34332 9.65521 5.3587 9.72729 5.38858C9.79937 5.41846 9.86485 5.46225 9.91999 5.51746L15.8575 11.455C15.9689 11.5664 16.0315 11.7175 16.0315 11.875C16.0315 12.0326 15.9689 12.1837 15.8575 12.2951C15.7461 12.4065 15.595 12.4691 15.4374 12.4691C15.2799 12.4691 15.1287 12.4065 15.0173 12.2951L9.49991 6.77695L3.98249 12.2951C3.92733 12.3503 3.86184 12.394 3.78976 12.4239C3.71768 12.4537 3.64043 12.4691 3.56241 12.4691C3.4844 12.4691 3.40715 12.4537 3.33507 12.4239C3.26299 12.394 3.1975 12.3503 3.14234 12.2951C3.08717 12.2399 3.04341 12.1745 3.01356 12.1024C2.9837 12.0303 2.96833 11.9531 2.96833 11.875C2.96833 11.797 2.9837 11.7198 3.01356 11.6477C3.04341 11.5756 3.08717 11.5101 3.14234 11.455Z" fill="#030F0F"/>
</svg>
