<svg width="28" height="28" viewBox="0 0 28 28" fill="none" xmlns="http://www.w3.org/2000/svg">
<path d="M25.2569 23.1875C23.5911 20.3077 21.0241 18.2427 18.0283 17.2638C19.5101 16.3816 20.6614 15.0374 21.3054 13.4376C21.9493 11.8378 22.0503 10.0708 21.5929 8.40805C21.1354 6.74528 20.1448 5.27865 18.7731 4.23339C17.4014 3.18812 15.7245 2.62202 14 2.62202C12.2754 2.62202 10.5986 3.18812 9.22689 4.23339C7.85522 5.27865 6.86458 6.74528 6.40711 8.40805C5.94965 10.0708 6.05065 11.8378 6.6946 13.4376C7.33856 15.0374 8.48986 16.3816 9.97171 17.2638C6.97593 18.2416 4.4089 20.3066 2.74312 23.1875C2.68203 23.2871 2.64151 23.3979 2.62395 23.5135C2.60639 23.629 2.61215 23.7468 2.64088 23.8601C2.66961 23.9734 2.72073 24.0797 2.79123 24.1729C2.86173 24.2661 2.95018 24.3442 3.05136 24.4026C3.15254 24.4611 3.2644 24.4987 3.38034 24.5132C3.49628 24.5277 3.61396 24.5188 3.72642 24.4871C3.83888 24.4554 3.94386 24.4015 4.03515 24.3286C4.12644 24.2557 4.2022 24.1652 4.25796 24.0625C6.31858 20.5012 9.96077 18.375 14 18.375C18.0392 18.375 21.6814 20.5012 23.742 24.0625C23.7978 24.1652 23.8735 24.2557 23.9648 24.3286C24.0561 24.4015 24.1611 24.4554 24.2736 24.4871C24.386 24.5188 24.5037 24.5277 24.6196 24.5132C24.7356 24.4987 24.8474 24.4611 24.9486 24.4026C25.0498 24.3442 25.1382 24.2661 25.2087 24.1729C25.2792 24.0797 25.3304 23.9734 25.3591 23.8601C25.3878 23.7468 25.3936 23.629 25.376 23.5135C25.3585 23.3979 25.318 23.2871 25.2569 23.1875ZM7.87499 10.5C7.87499 9.28859 8.23422 8.10438 8.90724 7.09713C9.58026 6.08988 10.5369 5.30482 11.6561 4.84124C12.7753 4.37765 14.0068 4.25636 15.1949 4.49269C16.3831 4.72902 17.4744 5.31237 18.331 6.16897C19.1876 7.02557 19.771 8.11694 20.0073 9.30507C20.2436 10.4932 20.1223 11.7247 19.6588 12.8439C19.1952 13.9631 18.4101 14.9197 17.4029 15.5928C16.3956 16.2658 15.2114 16.625 14 16.625C12.3761 16.6233 10.8192 15.9774 9.67088 14.8291C8.5226 13.6808 7.87673 12.1239 7.87499 10.5Z" fill="white"/>
</svg>
