<svg width="28" height="28" viewBox="0 0 28 28" fill="none" xmlns="http://www.w3.org/2000/svg">
<path d="M11.8438 8.92968C12.1416 8.80694 12.2836 8.46599 12.1609 8.16808C12.0381 7.87023 11.6971 7.7283 11.3993 7.85104L6.8229 9.73701C6.52505 9.85974 6.38306 10.2007 6.5058 10.4986C6.62859 10.7965 6.96955 10.9384 7.2674 10.8157L11.8438 8.92968Z" fill="white"/>
<path fill-rule="evenodd" clip-rule="evenodd" d="M15.1667 9.33333C15.1667 12.555 12.555 15.1667 9.33333 15.1667C6.1117 15.1667 3.5 12.555 3.5 9.33333C3.5 6.1117 6.1117 3.5 9.33333 3.5C12.555 3.5 15.1667 6.1117 15.1667 9.33333ZM14 9.33333C14 11.9107 11.9107 14 9.33333 14C6.75599 14 4.66667 11.9107 4.66667 9.33333C4.66667 6.75599 6.75599 4.66667 9.33333 4.66667C11.9107 4.66667 14 6.75599 14 9.33333Z" fill="white"/>
<path d="M20.9479 19.7896C21.2619 19.8618 21.5749 19.6658 21.6472 19.3518C21.7193 19.0379 21.5233 18.7248 21.2093 18.6526L16.3854 17.5437C16.0714 17.4714 15.7584 17.6674 15.6862 17.9815C15.614 18.2954 15.81 18.6085 16.124 18.6806L20.9479 19.7896Z" fill="white"/>
<path fill-rule="evenodd" clip-rule="evenodd" d="M18.6667 24.5C21.8883 24.5 24.5 21.8883 24.5 18.6667C24.5 15.4451 21.8883 12.8334 18.6667 12.8334C15.445 12.8334 12.8333 15.4451 12.8333 18.6667C12.8333 21.8883 15.445 24.5 18.6667 24.5ZM18.6667 23.3334C21.244 23.3334 23.3333 21.244 23.3333 18.6667C23.3333 16.0894 21.244 14 18.6667 14C16.0893 14 14 16.0894 14 18.6667C14 21.244 16.0893 23.3334 18.6667 23.3334Z" fill="white"/>
</svg>
