<svg width="32" height="32" viewBox="0 0 32 32" fill="none" xmlns="http://www.w3.org/2000/svg">
<path d="M27.0525 4.95012C25.804 3.70163 24.1107 3.00024 22.345 3.00024C20.5794 3.00024 18.886 3.70163 17.6375 4.95012L4.95002 17.6364C3.72763 18.8902 3.04846 20.5752 3.05965 22.3263C3.07083 24.0773 3.77146 25.7535 5.00976 26.9916C6.24806 28.2298 7.92431 28.9302 9.67539 28.9411C11.4265 28.9521 13.1113 28.2727 14.365 27.0501L27.0538 14.3639C28.3002 13.1144 29 11.4216 28.9998 9.65673C28.9996 7.8919 28.2993 6.19923 27.0525 4.95012ZM12.9513 25.6364C12.0779 26.5099 10.8932 27.0007 9.65797 27.0009C8.42269 27.001 7.23796 26.5104 6.3644 25.637C5.49084 24.7636 5.00002 23.579 4.9999 22.3437C4.99978 21.1084 5.49038 19.9237 6.36378 19.0501L12 13.4139L18.5875 20.0001L12.9513 25.6364ZM25.6388 12.9501L20 18.5864L13.415 12.0001L19.0525 6.36387C19.9294 5.50727 21.1086 5.03089 22.3344 5.03805C23.5602 5.04522 24.7337 5.53534 25.6005 6.40212C26.4673 7.26891 26.9574 8.44246 26.9646 9.66826C26.9718 10.8941 26.4954 12.0733 25.6388 12.9501ZM23.71 10.2926C23.803 10.3855 23.8768 10.4958 23.9271 10.6172C23.9774 10.7386 24.0033 10.8687 24.0033 11.0001C24.0033 11.1315 23.9774 11.2617 23.9271 11.3831C23.8768 11.5045 23.803 11.6147 23.71 11.7076L20.71 14.7076C20.6171 14.8004 20.5068 14.8741 20.3855 14.9243C20.2641 14.9745 20.134 15.0003 20.0027 15.0002C19.8714 15.0002 19.7413 14.9742 19.62 14.9239C19.4987 14.8736 19.3885 14.7999 19.2957 14.707C19.2028 14.6141 19.1292 14.5038 19.079 14.3824C19.0288 14.2611 19.003 14.131 19.003 13.9997C19.0031 13.8683 19.029 13.7383 19.0793 13.617C19.1296 13.4957 19.2034 13.3854 19.2963 13.2926L22.2963 10.2926C22.4838 10.1052 22.738 9.99996 23.0031 9.99996C23.2683 9.99996 23.5225 10.1052 23.71 10.2926Z" fill="#030F0F"/>
</svg>
