<svg width="40" height="40" viewBox="0 0 40 40" fill="none" xmlns="http://www.w3.org/2000/svg">
<path fill-rule="evenodd" clip-rule="evenodd" d="M35 11.6667C35 15.3486 32.0152 18.3333 28.3333 18.3333C24.6514 18.3333 21.6666 15.3486 21.6666 11.6667C21.6666 7.98477 24.6514 5 28.3333 5C32.0152 5 35 7.98477 35 11.6667ZM31.9019 12.4872C31.7988 12.9358 31.3515 13.2158 30.903 13.1127L25.39 11.8453C24.9415 11.7422 24.6615 11.2949 24.7645 10.8464C24.8677 10.3979 25.3149 10.1178 25.7634 10.221L31.2765 11.4884C31.725 11.5915 32.005 12.0388 31.9019 12.4872Z" fill="#030F0F"/>
<path d="M13.9818 7.70429C13.4423 6.42778 11.6378 6.29902 10.9129 7.48531L5.24401 16.7623C4.59008 17.8325 5.32123 19.1987 6.59659 19.2897L16.4853 19.9953C17.7606 20.0863 18.6884 18.8385 18.2017 17.6869L13.9818 7.70429Z" fill="#030F0F"/>
<path fill-rule="evenodd" clip-rule="evenodd" d="M29.4874 30.2993C31.9901 29.1323 33.0729 26.1574 31.9059 23.6547C30.7389 21.152 27.7639 20.0692 25.2613 21.2362L16.1982 25.4624C13.6954 26.6295 12.6127 29.6043 13.7797 32.1071C14.9468 34.6097 17.9216 35.6926 20.4244 34.5255L29.4874 30.2993ZM24.9522 30.5752L28.783 28.7888C30.4515 28.0108 31.1734 26.0275 30.3954 24.3591C29.6174 22.6906 27.6341 21.9687 25.9656 22.7467L22.1348 24.5331L24.9522 30.5752Z" fill="#030F0F"/>
</svg>
