<svg width="40" height="40" viewBox="0 0 40 40" fill="none" xmlns="http://www.w3.org/2000/svg">
<path d="M25.4 8.4444H24.0353C23.4408 8.4444 22.871 8.67581 22.4535 9.08681C21.5268 9.99906 19.9908 9.93073 19.1538 8.94015L18.84 8.56881C18.451 8.10845 18.2371 7.53198 18.2344 6.93641L18.2292 5.83331H14.2425V7.50139C14.2425 8.88856 14.6189 10.2511 15.3338 11.452L15.3782 11.5265C15.8295 12.2846 16.4158 12.959 17.1096 13.5184L19.075 15.1029C20.639 16.3638 21.108 18.5026 20.2086 20.2731C19.6653 21.3428 18.6856 22.1426 17.5074 22.4786L17.0607 22.606C16.4 22.7944 15.7033 22.859 15.0176 22.7974C12.5492 22.5756 10.2044 23.9579 9.28846 26.1956L8.84296 27.284C8.50629 28.1065 8.33337 28.9835 8.33337 29.8686V34.1666H12.3106V29.6444C12.3106 28.9278 12.5919 28.2382 13.0971 27.7161C13.9781 26.8054 15.3717 26.5678 16.5193 27.1326L18.2017 27.9607C18.9606 28.3342 19.7995 28.5289 20.6502 28.5289H23.4968C24.665 28.5289 25.8226 28.3128 26.9077 27.8922C28.7902 27.1626 30.3721 25.8497 31.408 24.1574L31.924 23.3144C32.8465 21.8073 33.3334 20.0865 33.3334 18.3331C33.3334 16.6999 32.9109 15.0928 32.1047 13.6596L31.2851 12.2026C30.763 11.2745 30.0375 10.4691 29.1598 9.84348L28.6458 9.47715C27.7045 8.80615 26.5675 8.4444 25.4 8.4444Z" fill="#030F0F"/>
<path fill-rule="evenodd" clip-rule="evenodd" d="M13.3964 5H19.091C19.0954 5.94703 18.8383 7.24971 19.5024 8.03613C20.9594 9.76125 23.3822 7.60668 25.3902 7.60668C28.9988 7.60668 31.2282 10.4007 32.8308 13.2513C34.6597 16.5041 34.5825 20.5712 32.6347 23.755C31.301 25.9348 29.6544 27.7286 27.2066 28.6778C23.5793 30.0844 19.529 29.5542 16.1474 27.8891C14.8571 27.2537 13.1892 28.1542 13.1892 29.6283V35H7.5V29.852C7.5 28.8571 7.69431 27.8717 8.07213 26.9482C9.85858 22.5818 12.769 22.9366 16.832 21.7776C19.4797 21.0223 21.0554 17.8082 18.5376 15.7774C17.0883 14.6083 15.5758 13.5335 14.6057 11.9035C13.3195 9.74217 13.3964 7.41444 13.3964 5Z" fill="#030F0F"/>
</svg>
