<svg width="40" height="40" viewBox="0 0 40 40" fill="none" xmlns="http://www.w3.org/2000/svg">
<path fill-rule="evenodd" clip-rule="evenodd" d="M14.8333 22.1666C15.9379 22.995 16.1617 24.562 15.3333 25.6666L12.8333 28.9999C12.3612 29.6294 11.6203 29.9999 10.8333 29.9999H7.5C6.11929 29.9999 5 28.8807 5 27.4999C5 26.1193 6.11929 24.9999 7.5 24.9999H9.58333L11.3333 22.6666C12.1618 21.562 13.7288 21.3382 14.8333 22.1666Z" fill="#030F0F"/>
<path d="M32.895 25.3279H30.2249L29.7501 25.1094C28.5338 23.7578 26.5634 20.8189 24.9125 19.81C24.2143 19.3831 23.4293 19.1617 22.6322 19.1668H22.6283H17.9166L18.4049 30H22.3456H22.3465C22.9972 29.9989 23.6411 29.8526 24.2398 29.5697C24.8388 29.2869 25.3805 28.8731 25.8325 28.3531L26.307 27.8072C26.9063 28.4732 27.4596 30 28.349 30H33.0065C33.5649 30 33.9886 29.7539 34.3835 29.3159C34.7782 28.8777 35 28.2834 35 27.6639C35 27.0444 34.7782 26.4502 34.3835 26.0122C33.9886 25.5739 33.4533 25.3279 32.895 25.3279Z" fill="#030F0F"/>
<path d="M33.3333 12.9167C33.3333 15.9082 30.9082 18.3333 27.9167 18.3333C24.9251 18.3333 22.5 15.9082 22.5 12.9167C22.5 9.92508 24.9251 7.5 27.9167 7.5C30.9082 7.5 33.3333 9.92508 33.3333 12.9167Z" fill="#030F0F"/>
<path fill-rule="evenodd" clip-rule="evenodd" d="M27.9167 16.6667C29.9878 16.6667 31.6667 14.9878 31.6667 12.9167C31.6667 10.8456 29.9878 9.16667 27.9167 9.16667C25.8456 9.16667 24.1667 10.8456 24.1667 12.9167C24.1667 14.9878 25.8456 16.6667 27.9167 16.6667ZM27.9167 18.3333C30.9082 18.3333 33.3333 15.9082 33.3333 12.9167C33.3333 9.92508 30.9082 7.5 27.9167 7.5C24.9251 7.5 22.5 9.92508 22.5 12.9167C22.5 15.9082 24.9251 18.3333 27.9167 18.3333Z" fill="#030F0F"/>
</svg>
